<?xml version="1.0" encoding="utf-8"?>
<!-- Generator: Adobe Illustrator 19.1.0, SVG Export Plug-In . SVG Version: 6.00 Build 0)  -->
<svg version="1.1" id="Layer_1" xmlns="http://www.w3.org/2000/svg" xmlns:xlink="http://www.w3.org/1999/xlink" x="0px" y="0px"
	 viewBox="-249 370.6 96.3 100.2" style="enable-background:new -249 370.6 96.3 100.2;" xml:space="preserve">
<style type="text/css">
	.st0{fill:#FFFFFF;}
</style>
<g id="mail">
	<path class="st0" d="M-155.9,395.1c-2.1-4.9-5.1-9.2-9-12.8c-3.9-3.6-8.6-6.5-14.1-8.5c-5.5-2.1-11.7-3.1-18.5-3.1
		c-4.9,0-9.6,0.6-14.1,1.8c-4.5,1.2-8.6,3-12.4,5.2c-3.8,2.3-7.3,5-10.4,8.2c-3.1,3.2-5.7,6.8-7.9,10.7c-2.2,4-3.8,8.2-5,12.8
		c-1.2,4.6-1.8,9.4-1.8,14.5c0,7.3,1.2,13.9,3.6,19.7c2.4,5.8,5.9,10.7,10.4,14.8s10.1,7.1,16.6,9.3c6.5,2.1,13.9,3.2,22.2,3.2
		c4.7,0,9-0.4,13-1.1c3.9-0.7,7.8-1.9,11.6-3.5l-3.1-7.4c-3,1.3-6.3,2.3-9.9,2.9c-3.5,0.7-7.5,1-11.7,1c-6.9,0-13.1-0.9-18.6-2.6
		c-5.5-1.7-10.1-4.3-13.9-7.6c-3.8-3.3-6.7-7.4-8.7-12.2c-2-4.8-3-10.3-3-16.5c0-6.3,1.1-12.2,3.2-17.7c2.1-5.5,5.1-10.3,8.9-14.3
		c3.8-4.1,8.4-7.3,13.6-9.6c5.3-2.3,11.1-3.5,17.4-3.5c5.2,0,10.1,0.8,14.5,2.4c4.5,1.6,8.3,3.9,11.5,6.8c3.2,2.9,5.7,6.3,7.5,10.2
		c1.8,4,2.7,8.3,2.7,12.9c0,4.5-0.5,8.5-1.6,12.1c-1.1,3.6-2.5,6.6-4.3,9c-1.8,2.5-3.9,4.3-6.3,5.7c-2.4,1.3-5,2-7.7,2
		c-1.2,0-2-0.3-2.5-1c-0.5-0.6-0.8-1.6-0.8-2.7c0-0.9,0.1-2,0.4-3.4c0.3-1.3,0.6-3,0.9-4.8l7.8-34.9h-9.6l-1.1,5.2
		c-1.9-2.1-4.1-3.6-6.6-4.7c-2.5-1.1-5.3-1.6-8.6-1.6c-3.7,0-7.3,0.9-10.6,2.7c-3.3,1.8-6.3,4.2-8.8,7.4c-2.5,3.1-4.5,6.8-6,11.1
		c-1.5,4.3-2.2,8.9-2.2,13.9c0,3.4,0.5,6.4,1.4,9c0.9,2.6,2.2,4.9,3.9,6.7c1.7,1.8,3.6,3.2,6,4.2c2.3,0.9,4.8,1.4,7.6,1.4
		c3.2,0,6.3-0.7,9.2-2.2c2.9-1.5,5.5-3.6,7.8-6.3c0.1,1.2,0.5,2.3,1,3.4c0.6,1,1.3,2,2.3,2.7c0.9,0.8,2,1.4,3.3,1.8
		c1.2,0.4,2.6,0.7,4.1,0.7c4.3,0,8.2-0.8,11.9-2.5c3.6-1.7,6.8-4.1,9.5-7.3c2.7-3.2,4.7-7.1,6.2-11.8c1.5-4.6,2.2-9.9,2.2-15.8
		C-152.7,405.4-153.7,400-155.9,395.1z M-192.2,424c-0.6,2.5-1.4,4.7-2.4,6.6c-1,2-2.3,3.6-3.7,5c-1.4,1.4-2.9,2.5-4.6,3.2
		c-1.7,0.7-3.4,1.1-5.3,1.1c-6.9,0-10.4-4.4-10.4-13.1c0-3.6,0.5-7,1.4-10.2c0.9-3.2,2.2-6,3.8-8.3c1.6-2.4,3.4-4.3,5.5-5.7
		c2.1-1.4,4.2-2.1,6.5-2.1c3.1,0,5.7,0.6,7.8,1.7c2.1,1.1,3.9,2.5,5.3,4.1L-192.2,424z"/>
</g>
<g id="Слой_1">
</g>
</svg>
