<?xml version="1.0" encoding="utf-8"?>
<!-- Generator: Adobe Illustrator 19.1.0, SVG Export Plug-In . SVG Version: 6.00 Build 0)  -->
<svg version="1.1" id="Layer_1" xmlns="http://www.w3.org/2000/svg" xmlns:xlink="http://www.w3.org/1999/xlink" x="0px" y="0px"
	 viewBox="-275 398.9 44 45" style="enable-background:new -275 398.9 44 45;" xml:space="preserve">
<style type="text/css">
	.st0{fill:#FFFFFF;}
</style>
<g>
	<path class="st0" d="M-235,428.9h-1v-11c0-7.3-5.2-13.3-12.1-14.7c-0.3-2.4-2.4-4.3-4.9-4.3s-4.6,1.9-4.9,4.3
		c-6.9,1.4-12.1,7.4-12.1,14.7v11h-1c-2.2,0-4,1.8-4,4c0,2.2,1.8,4,4,4h36c2.2,0,4-1.8,4-4C-231,430.7-232.8,428.9-235,428.9z"/>
	<path class="st0" d="M-253,443.9c2.8,0,5-2.2,5-5h-10C-258,441.7-255.8,443.9-253,443.9z"/>
</g>
</svg>
